<?xml version="1.0" encoding="UTF-8"?>
<svg width="40px" height="40px" viewBox="0 0 40 40" version="1.1" xmlns="http://www.w3.org/2000/svg" xmlns:xlink="http://www.w3.org/1999/xlink">
    <!-- Generator: Sketch 55.2 (78181) - https://sketchapp.com -->
    <title>Combined Shape</title>
    <desc>Created with Sketch.</desc>
    <g id="Page-2" stroke="none" stroke-width="1" fill="none" fill-rule="evenodd">
        <g id="Desktop-HD-Copy-2" transform="translate(-700.000000, -1272.000000)" fill="#29ADE4" fill-rule="nonzero">
            <g id="Group-6" transform="translate(235.000000, 1272.000000)">
                <path d="M484.995563,40 C473.950446,39.9975499 464.998367,31.0421601 465,19.9970427 C465.001633,8.95192524 473.956361,-0.000816523774 485.001478,0 C496.046596,0.000816523774 505,8.95488217 505,20 C504.98777,31.0423571 496.037923,39.9902196 484.995563,40 Z M484.995563,3.99290102 C478.508109,3.99290102 472.659957,7.90228642 470.17981,13.8969449 C467.699663,19.8916034 469.076326,26.790075 473.667458,31.3735851 C478.25859,35.9570952 485.15934,37.3222937 491.149869,34.8321893 C497.140398,32.342085 501.040052,26.4874449 501.029304,19.9999997 C501.007284,11.1582608 493.837327,4.00020716 484.995563,3.99290102 Z M485.405557,31.641791 C478.195656,31.641791 472.981997,25.2799932 472.761194,25.0108237 L475.942563,22.6865672 C475.983118,22.7378375 480.173873,27.8136037 485.405557,27.8136037 C488.397666,27.8136037 491.304157,26.0789564 494.034906,22.6865672 L497.238806,25.0065512 C493.701449,29.4115301 489.713472,31.641791 485.405557,31.641791 Z" id="Combined-Shape"></path>
            </g>
        </g>
    </g>
</svg>