<?xml version="1.0" encoding="UTF-8"?>
<svg width="209px" height="67px" viewBox="0 0 209 67" version="1.1" xmlns="http://www.w3.org/2000/svg" xmlns:xlink="http://www.w3.org/1999/xlink">
    <!-- Generator: Sketch 55.2 (78181) - https://sketchapp.com -->
    <title>logo</title>
    <desc>Created with Sketch.</desc>
    <g id="Desktop" stroke="none" stroke-width="1" fill="none" fill-rule="evenodd">
        <g id="Desktop-HD-Copy-2" transform="translate(-135.000000, -30.000000)" fill-rule="nonzero">
            <g id="logo" transform="translate(135.000000, 30.000000)">
                <path d="M162,34 L164,34 L164,36 L162,36 L162,34 Z M157,34 L159,34 L159,36 L157,36 L157,34 Z M193.180683,28.5112994 L193.225131,28.5112994 L170.260507,28.5112994 C169.295329,28.3884638 168.397478,27.9549862 167.704767,27.2774011 C167.04546,30.1124294 164.037835,32 160.585734,32 C156.34839,32 153,28.9152542 153,24.8389831 L153,22.319774 L155.963177,22.319774 L155.963177,24.5819209 C155.963177,27.3949153 157.637372,29.2824859 160.652405,29.2824859 C162.911828,29.2824859 165.097171,27.8576271 165.097171,25.9039548 C165.097488,25.3916738 164.887779,24.9012669 164.516187,24.5453157 C164.144595,24.1893645 163.643038,23.9984443 163.126658,24.0163842 C162.954648,24.0178095 162.783286,24.0375076 162.61551,24.0751412 L162.61551,21.519209 C163.04728,21.49446 163.480131,21.49446 163.9119,21.519209 C165.939051,21.4449486 167.811145,22.5905068 168.652984,24.420339 C169.164132,25.3824859 169.904926,25.6983051 171.179092,25.6983051 L192.551008,25.6983051 C193.521449,25.6983051 194.032597,25.0079096 194.032597,23.6418079 L194.032597,19 L196.995774,19 L196.995774,24.4350282 C197.041298,25.4460776 196.717812,26.4395317 196.084597,27.2333333 C195.37748,28.093965 194.298796,28.5686765 193.180683,28.5112994 Z M195,30 L197,30 L197,32 L195,32 L195,30 Z M209,26.0241219 L209,29 L198,29 L198,26.0472504 L205.942321,26.0472504 C205.942321,22.9634389 204.275886,21.5911428 200.38499,21.5911428 L200.38499,19.0161601 C201.763662,18.9494059 203.144515,19.0897106 204.482279,19.4324747 C207.471161,20.4886801 209,22.6936054 209,26.0241219 Z M90,12 L92,12 L92,14 L90,14 L90,12 Z M86,12 L88,12 L88,14 L86,14 L86,12 Z M103,30 L105,30 L105,32 L103,32 L103,30 Z M100,30 L102,30 L102,32 L100,32 L100,30 Z M95.3648649,25.1061348 L95.3873874,25.1289713 L101.933934,25.1289713 C102.93994,25.1289713 103.435435,24.4362652 103.435435,23.0356286 L103.435435,18.163849 L106.438438,18.163849 L106.438438,22.9062219 C106.450685,23.6537163 106.336416,24.3978044 106.100601,25.1061348 L119.749249,25.1061348 C119.545312,22.8055317 117.679431,21.0214696 115.402402,20.949898 L109.989489,20.949898 L114.253754,14 L117.81982,14 L115.117117,18.1410126 L116.768769,18.1410126 C120.867868,18.5749054 123,21.7720107 123,26.8949914 L123,27.9987539 L93.8858859,27.9987539 C92.2236661,28.0422078 90.7410252,26.9451995 90.2747748,25.3268874 C89.7417417,26.1718366 88.7282282,26.6285659 87.2267267,26.6285659 C84.6516517,26.6285659 83,24.4058165 83,21.3609543 C83,18.1181761 84.6066066,16.0324455 87.4444444,16.0324455 C87.4444444,16.0324455 89.3513514,16.0324455 93.1726727,16.0324455 L93.1726727,22.8833854 C93.0957209,23.4934975 93.3018071,24.1053447 93.7307558,24.5402725 C94.1597045,24.9752004 94.7631403,25.1841593 95.3648649,25.1061348 Z M90.1321321,21.1630383 L90.0720721,18.2932557 L88.0900901,18.2932557 C86.8663664,18.2932557 85.9654655,19.6406072 85.9654655,21.3381179 C85.9654655,22.8681611 86.7987988,24.1470033 88.0900901,24.1470033 C89.3813814,24.1470033 90.1321321,22.9518948 90.1321321,21.1630383 Z M128,14 L130,14 L130,16 L128,16 L128,14 Z M138.322907,27.9933438 L124,27.9933438 L124,25.0837615 L131.940205,25.0837615 C131.940205,22.0450332 130.28345,20.6927991 126.397331,20.6927991 L126.397331,18.1554609 C127.771793,18.0895348 129.148456,18.2277962 130.481955,18.5656893 C133.474802,19.6292442 135.001764,21.7791444 135.001764,25.060971 L138.322907,25.060971 C139.353607,25.060971 139.941488,24.3696603 139.941488,22.9566517 L139.941488,14 L142.995412,14 L142.995412,23.7771083 C143.04325,24.8205255 142.71571,25.8467386 142.0716,26.671497 C141.324471,27.5724766 140.189469,28.0637456 139.017675,27.9933438 L138.322907,27.9933438 Z M143,14 L146,14 L146,28 L143,28 L143,14 Z M92.9796682,45.5072534 C93.3036289,45.7969879 93.5608426,46.1543637 93.7333574,46.5544376 C93.9205068,47.0121544 94.0109521,47.5040427 93.9989431,47.9988295 L93.9989431,48.0349393 C94.0088164,48.6137967 93.8937122,49.1879147 93.6615775,49.717656 C93.4412965,50.2033509 93.1120527,50.631023 92.6997265,50.967055 C92.2738014,51.31156 91.7866004,51.5713581 91.2641281,51.7325827 C90.6563112,51.9148307 90.0248858,52.0048914 89.3906721,51.9997952 C88.4287809,51.9991637 87.4742977,51.8305562 86.5697212,51.50148 C85.6351743,51.164227 84.7763886,50.6438356 84.043068,49.9704246 L84,49.9704246 L85.6868282,47.919388 L85.7298961,47.9554978 C86.2651615,48.3984863 86.8535696,48.7721334 87.4813262,49.0676796 C88.0956478,49.3429731 88.7612507,49.4833105 89.4337401,49.4793313 C89.8873774,49.5025067 90.3381493,49.3947613 90.7329567,49.168787 C91.0154717,48.9927508 91.1846596,48.6797579 91.1779922,48.3454836 L91.1779922,48.3093738 C91.1791466,48.1551158 91.1473228,48.0024112 91.0846783,47.8616123 C91.0025266,47.7068247 90.8779672,47.5789959 90.7257787,47.4932924 C90.5007255,47.3500486 90.2598307,47.2337108 90.0079795,47.1466383 C89.5891241,46.9983791 89.1626073,46.8730155 88.7302969,46.7710964 C88.1452093,46.6247817 87.5678415,46.4488232 87.0004007,46.2438933 C86.5251991,46.0744121 86.0794894,45.8306948 85.6796502,45.5216974 C85.3128669,45.2375334 85.0198131,44.8683529 84.8254691,44.4456254 C84.6121222,43.9441323 84.5092722,43.4020943 84.5239934,42.8567942 C84.519021,42.3148452 84.6291471,41.7780775 84.8470031,41.282407 C85.0630325,40.8141702 85.3763351,40.3979791 85.7657861,40.0618958 C86.1751856,39.7077406 86.6511912,39.4400358 87.1654946,39.2747022 C87.7403273,39.0874238 88.3414429,38.9947532 88.9456366,39.0002677 C89.8148789,38.9929777 90.6790115,39.1346257 91.5010018,39.4191414 C92.279131,39.6975879 93.0065897,40.1025806 93.6543995,40.6179867 L92.1613771,42.7845746 L92.1111312,42.7484648 C91.5951654,42.4142504 91.0468306,42.1335642 90.474549,41.9107175 C89.9721103,41.6986357 89.4330716,41.5882044 88.8882127,41.5857293 C88.4758089,41.556217 88.0650765,41.6626981 87.7182,41.8890516 C87.4840887,42.0540653 87.3447569,42.3236522 87.3449444,42.6112476 C87.3408663,42.78593 87.3777528,42.9591216 87.4526142,43.1167848 C87.5495311,43.2787632 87.6885024,43.4110952 87.8545818,43.4995486 C88.1125337,43.6441328 88.3874253,43.7557334 88.6728729,43.8317588 C89.0245945,43.9400882 89.4696301,44.0700834 90.0008015,44.2073007 C90.5833412,44.3582427 91.1542813,44.5513308 91.7091636,44.7850575 C92.1665212,44.9597746 92.5948945,45.2032759 92.9796682,45.5072534 Z M101.496309,44.3889835 L104.855196,39 L108,39 L108,52 L105.076661,52 L105.076661,43.7393526 L101.547984,49.0914253 L101.407723,49.0914253 L101.392959,49.0618966 L97.9159568,43.7910278 L97.9159568,52 L95,52 L95,39 L98.1448041,39 L98.1669506,39.0295287 L101.496309,44.3889835 Z M114.632871,39 L117.359658,39 L123,52 L119.869797,52 L118.674493,49.1331077 L113.2508,49.1331077 L112.055496,52 L109,52 L114.632871,39 Z M114.326574,46.5228426 L117.598719,46.5228426 L115.962647,42.6001128 L114.326574,46.5228426 Z M133.796091,45.926038 C133.307385,46.5686507 132.661931,47.065901 131.925733,47.3669414 L135,52 L131.610423,52 L128.930293,47.8767995 L126.86645,47.8767995 L126.86645,52 L124,52 L124,39.0097016 L129.775896,39.0097016 C131.128489,38.9242002 132.457089,39.4066205 133.459283,40.3471556 C134.20427,41.148948 134.597956,42.2305771 134.548534,43.3398011 C134.58746,44.2646721 134.32232,45.1759923 133.796091,45.926038 Z M131.646254,43.487586 L131.646254,43.4506398 C131.681314,42.9414356 131.475818,42.4460998 131.094463,42.1205751 C130.640899,41.7923679 130.09239,41.6333777 129.539414,41.669831 L126.873616,41.669831 L126.873616,45.2462271 L129.596743,45.2462271 C130.145281,45.2831059 130.68802,45.1123245 131.123127,44.765926 C131.472287,44.4405712 131.663829,43.9725088 131.646254,43.487586 Z M135,41.7314026 L135,39 L146,39 L146,41.7314026 L142.009582,41.7314026 L142.009582,52 L138.990418,52 L138.990418,41.7314026 L135,41.7314026 Z M163.080997,40.8534093 C163.688033,41.4354199 164.172339,42.1331763 164.505325,42.9054867 C164.836811,43.715916 165.004851,44.583896 164.999893,45.4595111 L164.999893,45.4964189 C165.004861,46.3768181 164.836857,47.2496289 164.505325,48.0652064 C164.17626,48.8418442 163.691504,49.5427599 163.080997,50.1246654 C162.439901,50.722776 161.687697,51.1892461 160.867015,51.497638 C159.977069,51.8392659 159.030584,52.0095706 158.077398,51.999585 L153,51.999585 L153,39.0006344 L158.077398,39.0006344 C159.030112,38.9882936 159.976581,39.1560911 160.867015,39.4951999 C161.687179,39.7977958 162.439555,40.2593552 163.080997,40.8534093 Z M161.914967,45.5407084 L161.914967,45.4964189 C161.921271,44.9720099 161.828632,44.4511164 161.641909,43.9610517 C161.463232,43.5100221 161.197405,43.0986522 160.859635,42.7504737 C160.518687,42.4054711 160.108777,42.1363296 159.656705,41.9606453 C159.16006,41.7694701 158.63166,41.6742868 158.099538,41.6801455 L155.974115,41.6801455 L155.974115,49.283166 L158.099538,49.283166 C158.630894,49.2877641 159.158617,49.1952045 159.656705,49.0100478 C160.10553,48.8522108 160.515603,48.6005771 160.859635,48.2718905 C161.194192,47.9267847 161.459714,47.5208968 161.641909,47.0760756 C161.830551,46.5865442 161.923256,46.0652787 161.914967,45.5407084 Z M174.17998,46.2774152 L174.144301,39 L176.998569,39 L176.998569,46.1900862 C177.01532,47.0530621 176.884939,47.9124456 176.613243,48.7299041 C176.379789,49.4057452 176.0048,50.0216188 175.51435,50.534703 C175.017312,51.0270855 174.417081,51.3978624 173.758975,51.6190379 C173.024908,51.866042 172.255612,51.9865571 171.482697,51.9756312 C169.972433,52.1267395 168.476711,51.5694448 167.417637,50.4610198 C166.358562,49.3525949 165.850998,47.8132554 166.038182,46.2774152 L166.038182,39 L168.892449,39 L168.892449,46.2191958 C168.839346,47.0520903 169.093909,47.8750837 169.606016,48.5261364 C170.119329,49.0388989 170.822923,49.3036853 171.539782,49.253878 C172.253687,49.2978821 172.952846,49.0337903 173.466413,48.5261364 C173.980673,47.8989998 174.236457,47.0929255 174.17998,46.2774152 Z M187.688889,45.1867445 C188.319811,45.4253087 188.885972,45.8100988 189.341467,46.3099154 C189.804331,46.8897877 190.037217,47.6216351 189.995153,48.3641359 L189.995153,48.4010823 C190.006034,48.9458647 189.887696,49.4854109 189.649948,49.9749994 C189.41658,50.4279504 189.076064,50.8162066 188.658401,51.1055596 C188.190453,51.4196113 187.67065,51.647308 187.12334,51.7779843 C186.475964,51.9312495 185.812623,52.0056761 185.147591,51.9996628 L179,51.9996628 L179,39.0093045 L185.000695,39.0093045 C186.242652,38.9300983 187.463726,39.3591305 188.386644,40.198979 C188.970892,40.7851121 189.291909,41.5858425 189.275364,42.4157636 C189.281291,42.7530712 189.236723,43.0893553 189.143158,43.4133168 C189.054207,43.6902974 188.928188,43.9538051 188.768573,44.1965807 C188.613677,44.4186833 188.433758,44.622009 188.232403,44.8025018 C188.063931,44.9478629 187.881917,45.0765395 187.688889,45.1867445 Z M181.864469,41.5955533 L181.864469,44.1596343 L184.405767,44.1596343 C184.91387,44.1858932 185.420043,44.078953 185.874725,43.8492844 C186.21969,43.644801 186.419087,43.2607862 186.388861,42.8591206 C186.409598,42.4917061 186.240157,42.1395939 185.940828,41.928071 C185.539665,41.6819813 185.073007,41.5658999 184.604076,41.5955533 L181.864469,41.5955533 Z M187.093961,48.053786 L187.093961,48.0168396 C187.105481,47.6321715 186.926643,47.2667927 186.616549,47.0414544 C186.151481,46.7572998 185.609156,46.6280083 185.066798,46.6719902 L181.864469,46.6719902 L181.864469,49.3838568 L185.154936,49.3838568 C185.653315,49.4140875 186.149984,49.3013398 186.58717,49.0587284 C186.926607,48.8426936 187.121137,48.4569495 187.093961,48.053786 Z M195.640342,39 L198.367129,39 L204,52 L200.869797,52 L199.681964,49.1331077 L194.258271,49.1331077 L193.062967,52 L190,52 L195.640342,39 Z M195.326574,46.5228426 L198.60619,46.5228426 L196.962647,42.6001128 L195.326574,46.5228426 Z M206,39 L209,39 L209,52 L206,52 L206,39 Z" id="Combined-Shape" fill="#212850"></path>
                <path d="M33.4925686,67 C14.9919973,66.9958961 -0.0027358098,51.9956182 0,33.4950465 C0.0027358098,14.9944748 15.0019046,-0.00136767732 33.5024763,0 C52.0030481,0.00136767732 67,14.9994276 67,33.5 C66.9795154,51.9959482 51.9885212,66.9836178 33.4925686,67 Z M33.4925686,6.6881092 C22.6260831,6.6881092 12.8304279,13.2363298 8.67618151,23.2773827 C4.52193514,33.3184357 6.82784535,44.8733757 14.5179919,52.550755 C22.2081384,60.2281344 33.7668938,62.5148419 43.8010302,58.3439171 C53.8351666,54.1729923 60.3670868,44.3664701 60.3490834,33.4999995 C60.3122003,18.6900868 48.302522,6.70034699 33.4925686,6.6881092 Z M34.1793078,53 C22.1027246,53 13.3698454,42.3439885 13,41.8931298 L18.3287923,38 C18.3967231,38.0858779 25.4162371,46.5877863 34.1793078,46.5877863 C39.1910898,46.5877863 44.0594624,43.6822519 48.6334683,38 L54,41.8859733 C48.0749264,49.264313 41.3950663,53 34.1793078,53 Z" id="Combined-Shape" fill="#29ADE4"></path>
            </g>
        </g>
    </g>
</svg>