<?xml version="1.0" encoding="utf-8"?>
<!-- Generator: Adobe Illustrator 23.0.4, SVG Export Plug-In . SVG Version: 6.00 Build 0)  -->
<svg version="1.1" id="Layer_1" xmlns="http://www.w3.org/2000/svg" xmlns:xlink="http://www.w3.org/1999/xlink" x="0px" y="0px"
	 viewBox="0 0 209 67" style="enable-background:new 0 0 209 67;" xml:space="preserve">
<style type="text/css">
	.st0{fill:#FFFFFF;}
</style>
<title>logo</title>
<desc>Created with Sketch.</desc>
<g id="Desktop">
	<g id="Desktop-HD-Copy-2" transform="translate(-135.000000, -30.000000)">
		<g id="logo" transform="translate(135.000000, 30.000000)">
			<path id="Combined-Shape" class="st0" d="M162,34h2v2h-2V34z M157,34h2v2h-2V34z M193.2,28.5L193.2,28.5h-22.9
				c-1-0.1-1.9-0.6-2.6-1.2c-0.7,2.8-3.7,4.7-7.1,4.7c-4.2,0-7.6-3.1-7.6-7.2v-2.5h3v2.3c0,2.8,1.7,4.7,4.7,4.7
				c2.3,0,4.4-1.4,4.4-3.4c0-0.5-0.2-1-0.6-1.4c-0.4-0.4-0.9-0.5-1.4-0.5c-0.2,0-0.3,0-0.5,0.1v-2.6c0.4,0,0.9,0,1.3,0
				c2-0.1,3.9,1.1,4.7,2.9c0.5,1,1.3,1.3,2.5,1.3h21.4c1,0,1.5-0.7,1.5-2.1V19h3v5.4c0,1-0.3,2-0.9,2.8
				C195.4,28.1,194.3,28.6,193.2,28.5z M195,30h2v2h-2V30z M209,26v3h-11v-3h7.9c0-3.1-1.7-4.5-5.6-4.5V19c1.4-0.1,2.8,0.1,4.1,0.4
				C207.5,20.5,209,22.7,209,26z M90,12h2v2h-2V12z M86,12h2v2h-2V12z M103,30h2v2h-2V30z M100,30h2v2h-2V30z M95.4,25.1L95.4,25.1
				l6.6,0c1,0,1.5-0.7,1.5-2.1v-4.9h3v4.7c0,0.7-0.1,1.5-0.3,2.2h13.6c-0.2-2.3-2.1-4.1-4.3-4.2H110l4.3-6.9h3.6l-2.7,4.1h1.7
				c4.1,0.4,6.2,3.6,6.2,8.8V28H93.9c-1.7,0-3.1-1.1-3.6-2.7c-0.5,0.8-1.5,1.3-3,1.3c-2.6,0-4.2-2.2-4.2-5.3c0-3.2,1.6-5.3,4.4-5.3
				c0,0,1.9,0,5.7,0v6.9c-0.1,0.6,0.1,1.2,0.6,1.7C94.2,25,94.8,25.2,95.4,25.1z M90.1,21.2l-0.1-2.9h-2c-1.2,0-2.1,1.3-2.1,3
				c0,1.5,0.8,2.8,2.1,2.8S90.1,23,90.1,21.2z M128,14h2v2h-2V14z M138.3,28H124v-2.9h7.9c0-3-1.7-4.4-5.5-4.4v-2.5
				c1.4-0.1,2.8,0.1,4.1,0.4c3,1.1,4.5,3.2,4.5,6.5h3.3c1,0,1.6-0.7,1.6-2.1v-9h3.1v9.8c0,1-0.3,2.1-0.9,2.9
				c-0.7,0.9-1.9,1.4-3.1,1.3H138.3z M143,14h3v14h-3V14z M93,45.5c0.3,0.3,0.6,0.6,0.8,1C93.9,47,94,47.5,94,48v0
				c0,0.6-0.1,1.2-0.3,1.7c-0.2,0.5-0.5,0.9-1,1.2c-0.4,0.3-0.9,0.6-1.4,0.8C90.7,51.9,90,52,89.4,52c-1,0-1.9-0.2-2.8-0.5
				c-0.9-0.3-1.8-0.9-2.5-1.5h0l1.7-2.1l0,0c0.5,0.4,1.1,0.8,1.8,1.1c0.6,0.3,1.3,0.4,2,0.4c0.5,0,0.9-0.1,1.3-0.3
				c0.3-0.2,0.5-0.5,0.4-0.8v0c0-0.2,0-0.3-0.1-0.4c-0.1-0.2-0.2-0.3-0.4-0.4c-0.2-0.1-0.5-0.3-0.7-0.3c-0.4-0.1-0.8-0.3-1.3-0.4
				c-0.6-0.1-1.2-0.3-1.7-0.5c-0.5-0.2-0.9-0.4-1.3-0.7c-0.4-0.3-0.7-0.7-0.9-1.1c-0.2-0.5-0.3-1-0.3-1.6c0-0.5,0.1-1.1,0.3-1.6
				c0.2-0.5,0.5-0.9,0.9-1.2c0.4-0.4,0.9-0.6,1.4-0.8c0.6-0.2,1.2-0.3,1.8-0.3c0.9,0,1.7,0.1,2.6,0.4c0.8,0.3,1.5,0.7,2.2,1.2
				l-1.5,2.2l-0.1,0c-0.5-0.3-1.1-0.6-1.6-0.8c-0.5-0.2-1-0.3-1.6-0.3c-0.4,0-0.8,0.1-1.2,0.3c-0.2,0.2-0.4,0.4-0.4,0.7
				c0,0.2,0,0.3,0.1,0.5c0.1,0.2,0.2,0.3,0.4,0.4c0.3,0.1,0.5,0.3,0.8,0.3c0.4,0.1,0.8,0.2,1.3,0.4c0.6,0.2,1.2,0.3,1.7,0.6
				C92.2,45,92.6,45.2,93,45.5z M101.5,44.4l3.4-5.4h3.1v13h-2.9v-8.3l-3.5,5.4h-0.1l0,0l-3.5-5.3V52H95V39h3.1l0,0L101.5,44.4z
				 M114.6,39h2.7l5.6,13h-3.1l-1.2-2.9h-5.4l-1.2,2.9H109L114.6,39z M114.3,46.5h3.3l-1.6-3.9L114.3,46.5z M133.8,45.9
				c-0.5,0.6-1.1,1.1-1.9,1.4L135,52h-3.4l-2.7-4.1h-2.1V52H124V39h5.8c1.4-0.1,2.7,0.4,3.7,1.3c0.7,0.8,1.1,1.9,1.1,3
				C134.6,44.3,134.3,45.2,133.8,45.9z M131.6,43.5L131.6,43.5c0-0.5-0.2-1-0.6-1.4c-0.5-0.3-1-0.5-1.6-0.5h-2.7v3.6h2.7
				c0.5,0,1.1-0.1,1.5-0.5C131.5,44.4,131.7,44,131.6,43.5z M135,41.7V39h11v2.7h-4V52h-3V41.7H135z M163.1,40.9
				c0.6,0.6,1.1,1.3,1.4,2.1c0.3,0.8,0.5,1.7,0.5,2.6v0c0,0.9-0.2,1.8-0.5,2.6c-0.3,0.8-0.8,1.5-1.4,2.1c-0.6,0.6-1.4,1.1-2.2,1.4
				c-0.9,0.3-1.8,0.5-2.8,0.5H153V39h5.1c1,0,1.9,0.2,2.8,0.5C161.7,39.8,162.4,40.3,163.1,40.9z M161.9,45.5L161.9,45.5
				c0-0.6-0.1-1.1-0.3-1.6c-0.2-0.5-0.4-0.9-0.8-1.2c-0.3-0.3-0.8-0.6-1.2-0.8c-0.5-0.2-1-0.3-1.6-0.3H156v7.6h2.1
				c0.5,0,1.1-0.1,1.6-0.3c0.4-0.2,0.9-0.4,1.2-0.7c0.3-0.3,0.6-0.8,0.8-1.2C161.8,46.6,161.9,46.1,161.9,45.5z M174.2,46.3l0-7.3
				h2.9v7.2c0,0.9-0.1,1.7-0.4,2.5c-0.2,0.7-0.6,1.3-1.1,1.8c-0.5,0.5-1.1,0.9-1.8,1.1c-0.7,0.2-1.5,0.4-2.3,0.4
				c-1.5,0.2-3-0.4-4.1-1.5c-1.1-1.1-1.6-2.6-1.4-4.2V39h2.9v7.2c-0.1,0.8,0.2,1.7,0.7,2.3c0.5,0.5,1.2,0.8,1.9,0.7
				c0.7,0,1.4-0.2,1.9-0.7C174,47.9,174.2,47.1,174.2,46.3z M187.7,45.2c0.6,0.2,1.2,0.6,1.7,1.1c0.5,0.6,0.7,1.3,0.7,2.1v0
				c0,0.5-0.1,1.1-0.3,1.6c-0.2,0.5-0.6,0.8-1,1.1c-0.5,0.3-1,0.5-1.5,0.7c-0.6,0.2-1.3,0.2-2,0.2H179V39h6c1.2-0.1,2.5,0.3,3.4,1.2
				c0.6,0.6,0.9,1.4,0.9,2.2c0,0.3,0,0.7-0.1,1c-0.1,0.3-0.2,0.5-0.4,0.8c-0.2,0.2-0.3,0.4-0.5,0.6
				C188.1,44.9,187.9,45.1,187.7,45.2z M181.9,41.6v2.6h2.5c0.5,0,1-0.1,1.5-0.3c0.3-0.2,0.5-0.6,0.5-1c0-0.4-0.1-0.7-0.4-0.9
				c-0.4-0.2-0.9-0.4-1.3-0.3H181.9z M187.1,48.1L187.1,48.1c0-0.4-0.2-0.8-0.5-1c-0.5-0.3-1-0.4-1.5-0.4h-3.2v2.7h3.3
				c0.5,0,1-0.1,1.4-0.3C186.9,48.8,187.1,48.5,187.1,48.1z M195.6,39h2.7l5.6,13h-3.1l-1.2-2.9h-5.4l-1.2,2.9H190L195.6,39z
				 M195.3,46.5h3.3l-1.6-3.9L195.3,46.5z M206,39h3v13h-3V39z"/>
			<path class="st0" d="M33.5,67C15,67,0,52,0,33.5S15,0,33.5,0S67,15,67,33.5C67,52,52,67,33.5,67z M33.5,6.7
				c-10.9,0-20.7,6.5-24.8,16.6s-1.8,21.6,5.8,29.3s19.2,10,29.3,5.8s16.6-14,16.5-24.8C60.3,18.7,48.3,6.7,33.5,6.7z M34.2,53
				C22.1,53,13.4,42.3,13,41.9l5.3-3.9c0.1,0.1,7.1,8.6,15.9,8.6c5,0,9.9-2.9,14.5-8.6l5.4,3.9C48.1,49.3,41.4,53,34.2,53z"/>
		</g>
	</g>
</g>
</svg>
